<?xml version="1.0" encoding="UTF-8" standalone="no"?>
<svg
   xmlns:dc="http://purl.org/dc/elements/1.1/"
   xmlns:cc="http://creativecommons.org/ns#"
   xmlns:rdf="http://www.w3.org/1999/02/22-rdf-syntax-ns#"
   xmlns:svg="http://www.w3.org/2000/svg"
   xmlns="http://www.w3.org/2000/svg"
   width="36.380093mm"
   height="9.2603874mm"
   viewBox="0 0 36.380092 9.2603874"
   version="1.1"
   id="svg8">
  <defs
     id="defs2">
    <rect
       x="86.556549"
       y="154.97025"
       width="200.32738"
       height="12.85119"
       id="rect18" />
    <rect
       x="35.529762"
       y="147.03275"
       width="29.965904"
       height="15.633324"
       id="rect12" />
  </defs>
  <metadata
     id="metadata5">
    <rdf:RDF>
      <cc:Work
         rdf:about="">
        <dc:format>image/svg+xml</dc:format>
        <dc:type
           rdf:resource="http://purl.org/dc/dcmitype/StillImage" />
        <dc:title></dc:title>
      </cc:Work>
    </rdf:RDF>
  </metadata>
  <g
     id="layer1"
     transform="translate(-39.545293,-141.76519)">
    <g
       aria-label="3QR3Q"
       id="text10"
       style="font-style:normal;font-weight:normal;font-size:10.5833px;line-height:1.25;font-family:sans-serif;white-space:pre;shape-inside:url(#rect12);fill:#ffffff;fill-opacity:1;stroke:none">
      <g
         aria-label="ABOUT-ME"
         id="text41"
         style="font-size:10.5833px;line-height:1.25;font-family:Code39;-inkscape-font-specification:Code39;stroke-width:0.264583">
        <path
           d="m 42.191118,141.76519 v 9.26038 h 0.330728 v -9.26038 z m 0.661457,0 v 9.26038 h 0.661456 v -9.26038 z m -2.315097,0 v 9.26038 h 0.330728 v -9.26038 z m -0.992185,0 v 9.26038 h 0.661457 v -9.26038 z m 1.653641,0 v 9.26038 h 0.330728 v -9.26038 z"
           style="stroke-width:0.264583"
           id="path43" />
        <path
           d="m 45.829128,141.76519 v 9.26038 h 0.330728 v -9.26038 z m 1.65364,0 v 9.26038 h 0.661456 v -9.26038 z m -0.661456,0 v 9.26038 h 0.330728 v -9.26038 z m -1.984369,0 v 9.26038 H 45.4984 v -9.26038 z m -0.661456,0 v 9.26038 h 0.330728 v -9.26038 z"
           style="stroke-width:0.264583"
           id="path45" />
        <path
           d="m 52.44369,141.76519 v 9.26038 h 0.330728 v -9.26038 z m -3.638009,0 v 9.26038 h 0.661456 v -9.26038 z m 0.992184,0 v 9.26038 h 0.330728 v -9.26038 z m 0.661456,0 v 9.26038 h 0.661457 v -9.26038 z m 0.992185,0 v 9.26038 h 0.330728 v -9.26038 z"
           style="stroke-width:0.264583"
           id="path47" />
        <path
           d="m 56.743156,141.76519 v 9.26038 h 0.661456 v -9.26038 z m -0.661457,0 v 9.26038 h 0.330729 v -9.26038 z m -1.322912,0 v 9.26038 h 0.330728 v -9.26038 z m 0,0 v 9.26038 h 0.330728 v -9.26038 z m 0.661456,0 v 9.26038 h 0.330728 v -9.26038 z m -1.984368,0 v 9.26038 h 0.661456 v -9.26038 z"
           style="stroke-width:0.264583"
           id="path49" />
        <path
           d="m 60.381165,141.76519 v 9.26038 h 0.661456 v -9.26038 z m -2.315097,0 v 9.26038 h 0.330728 v -9.26038 z m 3.638009,0 v 9.26038 h 0.330729 v -9.26038 z m -2.315096,0 v 9.26038 h 0.661456 v -9.26038 z m -0.661457,0 v 9.26038 h 0.330729 v -9.26038 z"
           style="stroke-width:0.264583"
           id="path51" />
        <path
           d="m 66.003543,141.76519 v 9.26038 h 0.661456 v -9.26038 z m -1.65364,0 v 9.26038 h 0.330728 v -9.26038 z m -1.653641,0 v 9.26038 h 0.330728 v -9.26038 z m 0.992184,0 v 9.26038 h 0.330728 v -9.26038 z m 1.322913,0 v 9.26038 h 0.661456 v -9.26038 z"
           style="stroke-width:0.264583"
           id="path53" />
        <path
           d="m 70.964465,141.76519 v 9.26038 h 0.330728 v -9.26038 z m -2.645825,0 v 9.26038 h 0.661456 v -9.26038 z m -0.992184,0 v 9.26038 h 0.661456 v -9.26038 z m 1.984368,0 v 9.26038 h 0.330728 v -9.26038 z m 0.661457,0 v 9.26038 h 0.330728 v -9.26038 z"
           style="stroke-width:0.264583"
           id="path55" />
        <path
           d="m 73.610288,141.76519 v 9.26038 h 0.661456 v -9.26038 z m 1.322912,0 v 9.26038 h 0.330729 v -9.26038 z m -2.976553,0 v 9.26038 h 0.661457 v -9.26038 z m 0.992185,0 v 9.26038 h 0.330728 v -9.26038 z m 0,0 v 9.26038 h 0.330728 v -9.26038 z m 2.645825,0 v 9.26038 h 0.330728 v -9.26038 z"
           style="stroke-width:0.264583"
           id="path57" />
      </g>
    </g>
    <text
       xml:space="preserve"
       id="text16"
       style="font-style:normal;font-weight:normal;font-size:10.5833px;line-height:1.25;font-family:sans-serif;white-space:pre;shape-inside:url(#rect18);fill:#000000;fill-opacity:1;stroke:none;" />
  </g>
</svg>
