<?xml version="1.0" encoding="UTF-8" standalone="no"?>
<svg
   xmlns:dc="http://purl.org/dc/elements/1.1/"
   xmlns:cc="http://creativecommons.org/ns#"
   xmlns:rdf="http://www.w3.org/1999/02/22-rdf-syntax-ns#"
   xmlns:svg="http://www.w3.org/2000/svg"
   xmlns="http://www.w3.org/2000/svg"
   xmlns:sodipodi="http://sodipodi.sourceforge.net/DTD/sodipodi-0.dtd"
   xmlns:inkscape="http://www.inkscape.org/namespaces/inkscape"
   width="146.34764mm"
   height="32.00993mm"
   viewBox="0 0 146.34764 32.009929"
   version="1.1"
   id="svg8"
   inkscape:version="1.0.2-2 (e86c870879, 2021-01-15)"
   sodipodi:docname="3qr3q_b.svg">
  <defs
     id="defs2" />
  <sodipodi:namedview
     id="base"
     pagecolor="#ffffff"
     bordercolor="#666666"
     borderopacity="1.0"
     inkscape:pageopacity="0"
     inkscape:pageshadow="2"
     inkscape:zoom="2.8"
     inkscape:cx="259.65307"
     inkscape:cy="92.090714"
     inkscape:document-units="mm"
     inkscape:current-layer="layer2"
     inkscape:document-rotation="0"
     showgrid="false"
     inkscape:window-width="1920"
     inkscape:window-height="1027"
     inkscape:window-x="-8"
     inkscape:window-y="-8"
     inkscape:window-maximized="1"
     scale-x="1.3"
     showborder="true"
     inkscape:showpageshadow="true"
     borderlayer="false">
    <inkscape:grid
       type="xygrid"
       id="grid23"
       originx="-0.75757632"
       originy="-1.0629863" />
  </sodipodi:namedview>
  <metadata
     id="metadata5">
    <rdf:RDF>
      <cc:Work
         rdf:about="">
        <dc:format>image/svg+xml</dc:format>
        <dc:type
           rdf:resource="http://purl.org/dc/dcmitype/StillImage" />
        <dc:title></dc:title>
      </cc:Work>
    </rdf:RDF>
  </metadata>
  <g
     inkscape:label="レイヤー 1"
     inkscape:groupmode="layer"
     id="layer1"
     transform="translate(-0.75757632,-1.0629863)" />
  <g
     inkscape:groupmode="layer"
     id="layer2"
     inkscape:label="レイヤー 2"
     transform="translate(-0.75757632,-1.0629863)">
    <path
       id="rect12"
       style="fill:#000000;stroke-width:0.208502"
       d="m 13.523203,1.0629863 c 0.921811,0.69587 1.688285,1.5391001 2.29185,2.5373101 0.880533,1.45626 1.32085,3.14991 1.32085,5.08031 0,1.7271996 -0.457091,3.2845706 -1.371491,4.6731006 -0.9144,1.35466 -2.066036,2.35376 -3.45457,2.99723 1.659467,0.64347 3.014483,1.74426 4.064349,3.30213 1.049867,1.55786 1.574583,3.3359 1.574583,5.33404 0,3.28506 -1.015878,5.87612 -3.047878,7.77265 -0.113617,0.10784 -0.230378,0.21145 -0.348813,0.31316 h 14.407388 c -2.103967,-1.47056 -3.792641,-3.42087 -5.066874,-5.85081 -1.4224,-2.81093 -2.133719,-6.11279 -2.133719,-9.90585 0,-3.82694 0.711319,-7.128791 2.133719,-9.9058606 1.408202,-2.71816 3.324325,-4.83264 5.745903,-6.3474101 z m 33.833079,0 c 2.4204,1.5147601 4.31984,3.6293301 5.69526,6.3474101 1.45626,2.7770696 2.18436,6.0789206 2.18436,9.9058606 0,3.48826 -0.62641,6.58725 -1.87947,9.29659 l 5.23224,3.96255 -1.93219,2.49752 h 3.71037 V 1.0629863 Z m 36.292868,0 c 1.16224,0.67375 2.09068,1.6017301 2.77813,2.7915601 0.9144,1.524 1.37149,3.57252 1.37149,6.1463896 0,3.183471 -0.69402,5.588431 -2.08256,7.214031 -1.35466,1.59173 -3.2344,2.60761 -5.63893,3.04788 l 6.22959,12.81007 h 7.13548 c -1.3516,-1.22095 -2.37037,-2.88188 -3.05304,-4.98678 l 5.588289,-1.82883 c 0.13547,0.33867 0.35563,0.79576 0.66043,1.3715 0.3048,0.54186 0.76189,1.0498 1.37149,1.52393 0.6096,0.44027 1.40532,0.66043 2.387451,0.66043 1.55786,0 2.79389,-0.3727 3.70829,-1.11776 0.94827,-0.74507 1.42265,-2.0655 1.42265,-3.96203 0,-1.65947 -0.45709,-2.98042 -1.37149,-3.96255 -0.88053,-1.016 -2.20148,-1.52394 -3.96254,-1.52394 h -2.794141 v -5.53713 h 2.794141 c 1.59172,0 2.72607,-0.45761 3.4034,-1.37201 0.7112,-0.9144 1.06712,-2.048741 1.06712,-3.4034106 0,-1.59173 -0.44032,-2.67523 -1.32085,-3.25096 -0.88053,-0.6096 -1.86286,-0.91468 -2.94658,-0.91468 -0.812801,0 -1.506831,0.23694 -2.082561,0.71107 -0.54187,0.47413 -0.98218,0.99936 -1.32085,1.5751 -0.3048,0.57573 -0.52496,1.03282 -0.66043,1.37149 l -5.486479,-2.23501 c 0.84513,-2.17783 2.06583,-3.88647 3.65972,-5.1283601 z m 23.75203,0 c 0.92189,0.69589 1.68877,1.5390401 2.29237,2.5373101 0.88053,1.45626 1.32085,3.14991 1.32085,5.08031 0,1.7271996 -0.45709,3.2845706 -1.37149,4.6731006 -0.9144,1.35466 -2.06604,2.35376 -3.45457,2.99723 1.65946,0.64347 3.01397,1.74426 4.06383,3.30213 1.04987,1.55786 1.5751,3.3359 1.5751,5.33404 0,3.28506 -1.01639,5.87612 -3.04839,7.77265 -0.11361,0.10783 -0.22988,0.21146 -0.3483,0.31316 h 14.40739 c -2.10397,-1.47056 -3.79316,-3.42087 -5.06739,-5.85081 -1.4224,-2.81093 -2.13372,-6.11279 -2.13372,-9.90585 0,-3.82694 0.71132,-7.128791 2.13372,-9.9058606 1.4082,-2.71816 3.32484,-4.83264 5.74641,-6.3474101 z m 33.83308,0 c 2.4205,1.5147701 4.32032,3.6292501 5.69578,6.3474101 0.0603,0.11496 0.11739,0.23206 0.17518,0.34882 V 1.0629863 Z M 6.5189813,4.7686964 c -0.8128,0 -1.507344,0.23694 -2.0830779,0.71107 -0.541866,0.47413 -0.982183,0.99936 -1.32085,1.5751 -0.3048,0.57573 -0.524957,1.03282 -0.660424,1.37149 L 0.75757632,7.7349264 V 26.696557 l 1.34151908,-0.43925 c 0.135467,0.33867 0.355624,0.79576 0.660424,1.3715 0.3048,0.54186 0.761894,1.0498 1.371494,1.52393 0.6095999,0.44027 1.4058349,0.66043 2.3879679,0.66043 1.557867,0 2.793899,-0.3727 3.7082987,-1.11776 0.948267,-0.74507 1.422136,-2.0655 1.422136,-3.96203 0,-1.65947 -0.457092,-2.98042 -1.371492,-3.96255 -0.8805327,-1.016 -2.2014807,-1.52394 -3.9625477,-1.52394 H 3.5217474 v -5.53713 h 2.7936289 c 1.591733,0 2.726592,-0.45761 3.403926,-1.37201 0.7111997,-0.9144 1.0666007,-2.048741 1.0666007,-3.4034106 0,-1.59173 -0.440317,-2.67523 -1.3208497,-3.25096 -0.880533,-0.6096 -1.862339,-0.91468 -2.946072,-0.91468 z m 32.0037297,0.25425 c -1.998134,0 -3.742106,0.52472 -5.232239,1.57458 -1.456266,1.016 -2.591125,2.43864 -3.403925,4.2674396 -0.8128,1.828801 -1.219049,3.979021 -1.219049,6.451291 0,2.4384 0.406249,4.57236 1.219049,6.40116 0.8128,1.8288 1.947659,3.2677 3.403925,4.31756 1.490133,1.016 3.234105,1.52394 5.232239,1.52394 2.032,0 3.826817,-0.55878 5.384683,-1.67638 l -4.521171,-3.50521 4.064352,-5.1816 4.216277,3.20084 c 0.47414,-1.59174 0.71107,-3.28538 0.71107,-5.08031 0,-2.47227 -0.40625,-4.62249 -1.21905,-6.451291 -0.77893,-1.8287996 -1.91379,-3.2514396 -3.403923,-4.2674396 -1.456266,-1.04986 -3.200238,-1.57458 -5.232238,-1.57458 z m 93.878499,0 c -1.99814,0 -3.74263,0.52472 -5.23276,1.57458 -1.45627,1.016 -2.59061,2.43864 -3.40341,4.2674396 -0.8128,1.828801 -1.21905,3.979021 -1.21905,6.451291 0,2.4384 0.40625,4.57236 1.21905,6.40116 0.8128,1.8288 1.94714,3.2677 3.40341,4.31756 1.49013,1.016 3.23462,1.52394 5.23276,1.52394 2.032,0 3.82681,-0.55878 5.38468,-1.67638 l -4.52117,-3.50521 4.06383,-5.1816 4.21628,3.20084 c 0.47414,-1.59174 0.71159,-3.28538 0.71159,-5.08031 0,-2.47227 -0.40676,-4.62249 -1.21956,-6.451291 -0.77894,-1.8287996 -1.91328,-3.2514396 -3.40341,-4.2674396 -1.45627,-1.04986 -3.20024,-1.57458 -5.23224,-1.57458 z m -65.43063,0.60927 v 8.7886106 h 8.94106 c 1.524,0 2.72597,-0.33863 3.6065,-1.01596 0.88053,-0.67734 1.32085,-1.8122 1.32085,-3.403931 0,-1.5578696 -0.44032,-2.6754296 -1.32085,-3.3527596 -0.88053,-0.67734 -2.0825,-1.01596 -3.6065,-1.01596 z m 0,14.9355206 v 12.50518 h 11.7719 l -5.42189,-12.50518 z m -17.627338,11.53159 c -0.39446,0.3475 -0.80626,0.67037 -1.23197,0.97359 h 2.51302 z m 93.877978,0 c -0.39437,0.34742 -0.80584,0.67043 -1.23145,0.97359 h 2.51251 z" />
  </g>
</svg>
