<?xml version="1.0" encoding="UTF-8" standalone="no"?>
<svg
   xmlns:dc="http://purl.org/dc/elements/1.1/"
   xmlns:cc="http://creativecommons.org/ns#"
   xmlns:rdf="http://www.w3.org/1999/02/22-rdf-syntax-ns#"
   xmlns:svg="http://www.w3.org/2000/svg"
   xmlns="http://www.w3.org/2000/svg"
   xmlns:sodipodi="http://sodipodi.sourceforge.net/DTD/sodipodi-0.dtd"
   xmlns:inkscape="http://www.inkscape.org/namespaces/inkscape"
   width="120mm"
   height="120mm"
   viewBox="0 0 120 120"
   version="1.1"
   id="svg8"
   inkscape:version="1.0.2-2 (e86c870879, 2021-01-15)"
   sodipodi:docname="3qr_w.svg">
  <defs
     id="defs2" />
  <sodipodi:namedview
     id="base"
     pagecolor="#ffffff"
     bordercolor="#666666"
     borderopacity="1.0"
     inkscape:pageopacity="0.0"
     inkscape:pageshadow="2"
     inkscape:zoom="0.7"
     inkscape:cx="77.57402"
     inkscape:cy="318.41309"
     inkscape:document-units="mm"
     inkscape:current-layer="layer1"
     inkscape:document-rotation="0"
     showgrid="false"
     inkscape:window-width="1662"
     inkscape:window-height="1080"
     inkscape:window-x="28"
     inkscape:window-y="1090"
     inkscape:window-maximized="0" />
  <metadata
     id="metadata5">
    <rdf:RDF>
      <cc:Work
         rdf:about="">
        <dc:format>image/svg+xml</dc:format>
        <dc:type
           rdf:resource="http://purl.org/dc/dcmitype/StillImage" />
        <dc:title></dc:title>
      </cc:Work>
    </rdf:RDF>
  </metadata>
  <g
     inkscape:label="レイヤー 1"
     inkscape:groupmode="layer"
     id="layer1"
     transform="translate(-40.677662,-71.695827)">
    <path
       style="fill:#ffffff;stroke-width:0.0725714"
       d="m 101.49538,149.59477 -0.0363,39.67309 -6.567082,-6.6269 -6.56708,-6.6269 -2.32102,-2.35858 -2.32102,-2.35857 -5.44672,-5.47915 -5.44672,-5.47914 -3.26375,-3.30396 -3.263746,-3.30396 -7.94674,-8.01718 -7.94675,-8.01718 -0.99768,-1.01921 -0.99769,-1.01921 0.002,-11.06393 0.002,-11.06394 4.86681,4.89858 4.86681,4.89857 8.35743,8.4358 8.357436,8.4358 6.55332,6.62277 6.55333,6.62277 0.0688,0.0242 0.0688,0.0242 5.8e-4,-39.68448 5.8e-4,-39.684466 6.40382,6.415501 6.403832,6.4155 0.3533,0.40622 0.35329,0.40621 3.38689,3.41086 3.38689,3.410853 5.87553,5.945072 5.87553,5.94506 2.57629,2.58633 2.57628,2.58635 5.87829,5.9451 5.87828,5.94511 5.36963,5.40805 5.36963,5.40806 2.61189,2.63072 2.61189,2.63071 h -10.96301 -10.96301 l -2.46137,-2.45883 -2.46133,-2.45883 -1.19401,-1.22417 -1.194,-1.22417 -11.10685,-11.1659 -11.10685,-11.1659 z m 22.91475,11.23883 -0.0185,7.71908 -5.59607,-5.63102 -5.59607,-5.63104 -3.14698,-3.19314 -3.14697,-3.19314 -2.48548,-2.50372 -2.48549,-2.50371 -0.002,-2.921 -0.002,-2.921 h 4.77444 4.77444 l 1.1939,1.21557 1.19389,1.21557 5.28057,5.31423 5.28056,5.31424 -0.0185,7.71908 z m -8.27156,-21.21412 h -14.20776 v -7.43857 -7.43857 h 6.8407 6.8407 l 4.2083,4.22795 4.2083,4.22795 3.15875,3.21062 3.15876,3.21062 z"
       id="path39" />
  </g>
</svg>
