<?xml version="1.0" encoding="UTF-8" standalone="no"?>
<svg
   xmlns:dc="http://purl.org/dc/elements/1.1/"
   xmlns:cc="http://creativecommons.org/ns#"
   xmlns:rdf="http://www.w3.org/1999/02/22-rdf-syntax-ns#"
   xmlns:svg="http://www.w3.org/2000/svg"
   xmlns="http://www.w3.org/2000/svg"
   xmlns:sodipodi="http://sodipodi.sourceforge.net/DTD/sodipodi-0.dtd"
   xmlns:inkscape="http://www.inkscape.org/namespaces/inkscape"
   width="46.199764mm"
   height="7.0398812mm"
   viewBox="0 0 46.199765 7.0398813"
   version="1.1"
   id="svg8"
   inkscape:version="1.0.2-2 (e86c870879, 2021-01-15)"
   sodipodi:docname="about-me.svg">
  <defs
     id="defs2">
    <rect
       x="21.166668"
       y="49.892857"
       width="170.84525"
       height="136.82738"
       id="rect835" />
  </defs>
  <sodipodi:namedview
     id="base"
     pagecolor="#ffffff"
     bordercolor="#666666"
     borderopacity="1.0"
     inkscape:pageopacity="0.0"
     inkscape:pageshadow="2"
     inkscape:zoom="7.9195959"
     inkscape:cx="113.41034"
     inkscape:cy="46.550555"
     inkscape:document-units="mm"
     inkscape:current-layer="text833"
     inkscape:document-rotation="0"
     showgrid="false"
     inkscape:window-width="1662"
     inkscape:window-height="865"
     inkscape:window-x="179"
     inkscape:window-y="1154"
     inkscape:window-maximized="0"
     inkscape:snap-text-baseline="false" />
  <metadata
     id="metadata5">
    <rdf:RDF>
      <cc:Work
         rdf:about="">
        <dc:format>image/svg+xml</dc:format>
        <dc:type
           rdf:resource="http://purl.org/dc/dcmitype/StillImage" />
        <dc:title></dc:title>
      </cc:Work>
    </rdf:RDF>
  </metadata>
  <g
     inkscape:label="レイヤー 1"
     inkscape:groupmode="layer"
     id="layer1"
     transform="translate(-20.665787,-52.059884)">
    <g
       aria-label="NAME"
       id="text833"
       style="font-size:10.5833px;line-height:1.25;font-family:Code39;-inkscape-font-specification:Code39;white-space:pre;shape-inside:url(#rect835)">
      <path
         id="rect858"
         style="opacity:0.998;fill:#ffffff;stroke-width:0.780299"
         d="M -3.140625,3.1914062 V 25.744141 L 5.0878906,3.1914062 Z m 12.6542969,0 9.7050781,26.6074218 h 3.822266 V 3.1914062 Z m 29.5546871,0 c 0.480061,0.2817327 0.914901,0.6106156 1.296875,0.9960938 1.432287,1.4192663 2.148438,3.248705 2.148438,5.4882812 0,1.1718718 -0.28646,2.2981808 -0.859375,3.3789068 -0.572915,1.080725 -1.686203,1.992189 -3.339844,2.734374 v 0.07813 c 1.562495,0.364582 2.727867,1.19141 3.496094,2.480468 0.768227,1.276038 1.152344,2.636724 1.152344,4.082032 0,2.460929 -0.787766,4.420577 -2.363282,5.878906 -0.686102,0.640362 -1.429994,1.131059 -2.226562,1.490234 h 13.769531 c -0.403455,-0.193728 -0.789511,-0.415629 -1.152344,-0.669922 -1.510411,-1.080725 -2.597658,-2.246097 -3.261718,-3.496094 -0.468749,-0.83333 -0.794272,-1.744794 -0.976563,-2.734374 -0.182291,-0.989581 -0.273437,-3.196626 -0.273437,-6.621094 0,-3.424469 0.09115,-5.631514 0.273437,-6.621094 0.182291,-0.9895802 0.507814,-1.9010443 0.976563,-2.734375 0.66406,-1.2369752 1.751307,-2.4023472 3.261718,-3.4960938 0.116016,-0.083293 0.239207,-0.157425 0.359375,-0.234375 z m 22.816407,0 c 0.119383,0.077068 0.240252,0.1509425 0.355468,0.234375 1.523433,1.0937466 2.630211,2.2591186 3.320313,3.4960938 0.455728,0.8333307 0.77474,1.7447948 0.957031,2.734375 0.182291,0.98958 0.273438,3.196625 0.273438,6.621094 0,3.424468 -0.09115,5.631513 -0.273438,6.621094 -0.182291,0.98958 -0.501303,1.901044 -0.957031,2.734374 -0.690102,1.249997 -1.79688,2.415369 -3.320313,3.496094 -0.359642,0.254231 -0.740379,0.476226 -1.140625,0.669922 h 15.826172 c -0.963504,-0.436184 -1.85821,-1.018272 -2.673828,-1.763672 -1.953119,-1.80989 -2.929687,-4.199228 -2.929687,-7.167968 V 3.1914062 Z m 13.753906,0 V 20.378906 c 0,1.96614 0.553389,3.470056 1.660156,4.511719 1.119788,1.028643 2.500005,1.542969 4.140625,1.542969 1.64062,0 3.014327,-0.514326 4.121094,-1.542969 1.119788,-1.041663 1.679687,-2.545579 1.679687,-4.511719 V 3.1914062 Z m 15.917969,0 V 20.867188 c 0,2.96874 -0.98308,5.358078 -2.949219,7.167968 -0.815766,0.745534 -1.708459,1.327466 -2.669922,1.763672 h 15.93164 V 5.8671875 H 94.076172 V 3.1914062 Z m 22.421879,0 v 2.6757813 h -7.79297 V 29.798828 h 20.42968 V 3.1914062 Z m 17.22656,0 7.65625,17.4023438 7.49219,-17.4023438 z m 19.72656,0 V 29.798828 h 5.99609 V 3.1914062 Z M 27.357422,5.8671875 V 14.03125 h 6.25 c 1.549474,0 2.701825,-0.397138 3.457031,-1.191406 0.755206,-0.794269 1.132813,-1.757816 1.132813,-2.8906252 0,-1.0937466 -0.377607,-2.0442735 -1.132813,-2.8515626 C 36.309247,6.2773464 35.156896,5.8671875 33.607422,5.8671875 Z m 29.277344,0.2539063 c -1.015622,0 -1.894534,0.2083346 -2.636719,0.625 -0.742185,0.4166653 -1.328126,0.8984392 -1.757813,1.4453124 -0.559894,0.7291644 -0.944011,1.5299507 -1.152343,2.4023438 -0.195312,0.872393 -0.292969,2.766936 -0.292969,5.683594 0,2.929678 0.09766,4.830732 0.292969,5.703125 0.208332,0.872393 0.592449,1.660158 1.152343,2.363281 0.429687,0.572915 1.015628,1.06771 1.757813,1.484375 0.742185,0.403645 1.621097,0.605469 2.636719,0.605469 1.015621,0 1.894533,-0.201824 2.636718,-0.605469 0.742186,-0.416665 1.328127,-0.91146 1.757813,-1.484375 0.559894,-0.703123 0.9375,-1.490888 1.132812,-2.363281 0.208333,-0.872393 0.3125,-2.773447 0.3125,-5.703125 0,-2.916658 -0.104167,-4.811201 -0.3125,-5.683594 C 61.966797,9.7213569 61.589191,8.9205706 61.029297,8.1914062 60.599611,7.644533 60.01367,7.1627591 59.271484,6.7460938 58.529299,6.3294284 57.650387,6.1210937 56.634766,6.1210938 Z m 104.609374,0 v 8.1054682 h 10.22852 V 6.1210938 Z M 7.3398438,7.8984375 C 6.884116,9.304683 6.5195304,10.430992 6.2460938,11.277344 5.9726571,12.110674 5.7057283,12.917971 5.4453125,13.699219 5.1979175,14.480466 4.9049468,15.352868 4.5664062,16.316406 4.2408865,17.279945 3.7916648,18.588547 3.21875,20.242188 h 8.240234 C 10.860028,18.484381 10.386718,17.110674 10.035156,16.121094 9.6966157,15.118493 9.3971346,14.23307 9.1367188,13.464844 8.8893237,12.696617 8.6354158,11.915362 8.375,11.121094 8.1145842,10.326825 7.7695299,9.2525999 7.3398438,7.8984375 Z M 130.93164,12.742188 v 17.05664 h 15.68359 v -17.05664 h -0.0781 l -5.95703,13.691406 h -3.59375 L 131.0293,12.742188 Z M 27.357422,17.859375 v 8.574219 h 6.640625 c 1.601557,0 2.77344,-0.42969 3.515625,-1.289063 0.755206,-0.872393 1.132812,-1.868493 1.132812,-2.988281 0,-1.119788 -0.377606,-2.115888 -1.132812,-2.988281 -0.742185,-0.872393 -1.914068,-1.308594 -3.515625,-1.308594 z m 133.886718,0.214844 v 8.359375 h 10.22852 V 18.074219 Z M 1.9492188,24.050781 -0.078125,29.798828 h 14.783203 l -1.957031,-5.748047 z"
         transform="matrix(0.26458333,0,0,0.26458333,21.496744,51.215491)" />
    </g>
  </g>
</svg>
