<?xml version="1.0" encoding="UTF-8" standalone="no"?>
<svg
   xmlns:dc="http://purl.org/dc/elements/1.1/"
   xmlns:cc="http://creativecommons.org/ns#"
   xmlns:rdf="http://www.w3.org/1999/02/22-rdf-syntax-ns#"
   xmlns:svg="http://www.w3.org/2000/svg"
   xmlns="http://www.w3.org/2000/svg"
   xmlns:sodipodi="http://sodipodi.sourceforge.net/DTD/sodipodi-0.dtd"
   xmlns:inkscape="http://www.inkscape.org/namespaces/inkscape"
   width="36.380093mm"
   height="9.2603874mm"
   viewBox="0 0 36.380093 9.2603874"
   version="1.1"
   id="svg8"
   inkscape:version="1.0.2-2 (e86c870879, 2021-01-15)"
   sodipodi:docname="about-me_bar.svg">
  <defs
     id="defs2" />
  <sodipodi:namedview
     id="base"
     pagecolor="#ffffff"
     bordercolor="#666666"
     borderopacity="1.0"
     inkscape:pageopacity="0.0"
     inkscape:pageshadow="2"
     inkscape:zoom="3.959798"
     inkscape:cx="105.02193"
     inkscape:cy="26.882959"
     inkscape:document-units="mm"
     inkscape:current-layer="text835"
     inkscape:document-rotation="0"
     showgrid="false"
     inkscape:window-width="1662"
     inkscape:window-height="864"
     inkscape:window-x="311"
     inkscape:window-y="1160"
     inkscape:window-maximized="0" />
  <metadata
     id="metadata5">
    <rdf:RDF>
      <cc:Work
         rdf:about="">
        <dc:format>image/svg+xml</dc:format>
        <dc:type
           rdf:resource="http://purl.org/dc/dcmitype/StillImage" />
        <dc:title></dc:title>
      </cc:Work>
    </rdf:RDF>
  </metadata>
  <g
     inkscape:label="レイヤー 1"
     inkscape:groupmode="layer"
     id="layer1"
     transform="translate(-44.931917,-39.120568)">
    <g
       aria-label="ABOUT ME"
       id="text835"
       style="font-size:10.5833px;line-height:1.25;font-family:Code39;-inkscape-font-specification:Code39;stroke-width:0.264583">
      <path
         d="m 47.577742,39.120568 v 9.260387 h 0.330728 v -9.260387 z m 0.661456,0 v 9.260387 h 0.661456 v -9.260387 z m -2.315097,0 v 9.260387 h 0.330728 v -9.260387 z m -0.992184,0 v 9.260387 h 0.661456 v -9.260387 z m 1.65364,0 v 9.260387 h 0.330728 v -9.260387 z"
         style="stroke-width:0.264583;fill:#ffffff"
         id="path837" />
      <path
         d="m 51.215751,39.120568 v 9.260387 h 0.330728 v -9.260387 z m 1.653641,0 v 9.260387 h 0.661456 v -9.260387 z m -0.661457,0 v 9.260387 h 0.330729 v -9.260387 z m -1.984368,0 v 9.260387 h 0.661456 v -9.260387 z m -0.661457,0 v 9.260387 h 0.330729 v -9.260387 z"
         style="stroke-width:0.264583;fill:#ffffff"
         id="path839" />
      <path
         d="m 57.830313,39.120568 v 9.260387 h 0.330729 v -9.260387 z m -3.638009,0 v 9.260387 h 0.661456 v -9.260387 z m 0.992185,0 v 9.260387 h 0.330728 v -9.260387 z m 0.661456,0 v 9.260387 h 0.661456 v -9.260387 z m 0.992184,0 v 9.260387 h 0.330728 v -9.260387 z"
         style="stroke-width:0.264583;fill:#ffffff"
         id="path841" />
      <path
         d="m 62.129779,39.120568 v 9.260387 h 0.661456 v -9.260387 z m -0.661456,0 v 9.260387 h 0.330728 v -9.260387 z m -1.322913,0 v 9.260387 h 0.330728 v -9.260387 z m 0,0 v 9.260387 h 0.330728 v -9.260387 z m 0.661457,0 v 9.260387 h 0.330728 v -9.260387 z m -1.984369,0 v 9.260387 h 0.661456 v -9.260387 z"
         style="stroke-width:0.264583;fill:#ffffff"
         id="path843" />
      <path
         d="m 65.767788,39.120568 v 9.260387 h 0.661457 v -9.260387 z m -2.315096,0 v 9.260387 h 0.330728 v -9.260387 z m 3.638009,0 v 9.260387 h 0.330728 v -9.260387 z m -2.315097,0 v 9.260387 h 0.661456 v -9.260387 z m -0.661456,0 v 9.260387 h 0.330728 v -9.260387 z"
         style="stroke-width:0.264583;fill:#ffffff"
         id="path845" />
      <path
         d="m 71.720895,39.120568 v 9.260387 h 0.330728 v -9.260387 z m -0.992185,0 v 9.260387 h 0.661456 v -9.260387 z m -2.645825,0 v 9.260387 h 0.330728 v -9.260387 z m 0.992185,0 v 9.260387 h 0.661456 v -9.260387 z m 0.992184,0 v 9.260387 h 0.330728 v -9.260387 z"
         style="stroke-width:0.264583;fill:#ffffff"
         id="path847" />
      <path
         d="m 76.351088,39.120568 v 9.260387 h 0.330728 v -9.260387 z m -2.645825,0 v 9.260387 h 0.661457 v -9.260387 z m -0.992184,0 v 9.260387 h 0.661456 v -9.260387 z m 1.984369,0 v 9.260387 h 0.330728 v -9.260387 z m 0.661456,0 v 9.260387 h 0.330728 v -9.260387 z"
         style="stroke-width:0.264583;fill:#ffffff"
         id="path849" />
      <path
         d="m 78.996911,39.120568 v 9.260387 h 0.661457 v -9.260387 z m 1.322913,0 v 9.260387 h 0.330728 v -9.260387 z m -2.976553,0 v 9.260387 h 0.661456 v -9.260387 z m 0.992184,0 v 9.260387 h 0.330728 v -9.260387 z m 0,0 v 9.260387 h 0.330728 v -9.260387 z m 2.645825,0 v 9.260387 h 0.330728 v -9.260387 z"
         style="stroke-width:0.264583;fill:#ffffff"
         id="path851" />
    </g>
  </g>
</svg>
